<svg xmlns="http://www.w3.org/2000/svg" width="980" height="540">
<rect width="100%" height="100%" fill="white"/>
<text x="490.0" y="34" text-anchor="middle" font-size="24" font-weight="bold">Switch Rate by Fraud Score Bucket</text>
<line x1="90" y1="420.0" x2="950" y2="420.0" stroke="#EAECEE"/>
<text x="80" y="424.0" text-anchor="end" font-size="11">0%</text>
<line x1="90" y1="350.0" x2="950" y2="350.0" stroke="#EAECEE"/>
<text x="80" y="354.0" text-anchor="end" font-size="11">9%</text>
<line x1="90" y1="280.0" x2="950" y2="280.0" stroke="#EAECEE"/>
<text x="80" y="284.0" text-anchor="end" font-size="11">19%</text>
<line x1="90" y1="210.0" x2="950" y2="210.0" stroke="#EAECEE"/>
<text x="80" y="214.0" text-anchor="end" font-size="11">28%</text>
<line x1="90" y1="140.0" x2="950" y2="140.0" stroke="#EAECEE"/>
<text x="80" y="144.0" text-anchor="end" font-size="11">37%</text>
<line x1="90" y1="70.0" x2="950" y2="70.0" stroke="#EAECEE"/>
<text x="80" y="74.0" text-anchor="end" font-size="11">47%</text>
<line x1="90" y1="70" x2="90" y2="420" stroke="#34495E"/>
<line x1="90" y1="420" x2="950" y2="420" stroke="#34495E"/>
<rect x="130.1" y="70.0" width="206.4" height="350.0" fill="#2E86DE"/>
<text x="233.3" y="440" text-anchor="middle" font-size="12">missing</text>
<text x="233.3" y="62.0" text-anchor="middle" font-size="11">46.8%</text>
<text x="233.3" y="458" text-anchor="middle" font-size="10" fill="#566573">n=1439</text>
<rect x="416.8" y="79.6" width="206.4" height="340.4" fill="#2E86DE"/>
<text x="520.0" y="440" text-anchor="middle" font-size="12">low</text>
<text x="520.0" y="71.6" text-anchor="middle" font-size="11">45.6%</text>
<text x="520.0" y="458" text-anchor="middle" font-size="10" fill="#566573">n=1936</text>
<rect x="703.5" y="266.2" width="206.4" height="153.8" fill="#2E86DE"/>
<text x="806.7" y="440" text-anchor="middle" font-size="12">very_high</text>
<text x="806.7" y="258.2" text-anchor="middle" font-size="11">20.6%</text>
<text x="806.7" y="458" text-anchor="middle" font-size="10" fill="#566573">n=34</text>
</svg>