<svg xmlns="http://www.w3.org/2000/svg" width="980" height="540">
<rect width="100%" height="100%" fill="white"/>
<text x="490.0" y="34" text-anchor="middle" font-size="24" font-weight="bold">Switch Rate by Destination Changes</text>
<line x1="90" y1="420.0" x2="950" y2="420.0" stroke="#EAECEE"/>
<text x="80" y="424.0" text-anchor="end" font-size="11">0%</text>
<line x1="90" y1="350.0" x2="950" y2="350.0" stroke="#EAECEE"/>
<text x="80" y="354.0" text-anchor="end" font-size="11">12%</text>
<line x1="90" y1="280.0" x2="950" y2="280.0" stroke="#EAECEE"/>
<text x="80" y="284.0" text-anchor="end" font-size="11">24%</text>
<line x1="90" y1="210.0" x2="950" y2="210.0" stroke="#EAECEE"/>
<text x="80" y="214.0" text-anchor="end" font-size="11">36%</text>
<line x1="90" y1="140.0" x2="950" y2="140.0" stroke="#EAECEE"/>
<text x="80" y="144.0" text-anchor="end" font-size="11">48%</text>
<line x1="90" y1="70.0" x2="950" y2="70.0" stroke="#EAECEE"/>
<text x="80" y="74.0" text-anchor="end" font-size="11">60%</text>
<line x1="90" y1="70" x2="90" y2="420" stroke="#34495E"/>
<line x1="90" y1="420" x2="950" y2="420" stroke="#34495E"/>
<rect x="150.2" y="70.0" width="309.6" height="350.0" fill="#2E86DE"/>
<text x="305.0" y="440" text-anchor="middle" font-size="12">2+</text>
<text x="305.0" y="62.0" text-anchor="middle" font-size="11">60.3%</text>
<text x="305.0" y="458" text-anchor="middle" font-size="10" fill="#566573">n=121</text>
<rect x="580.2" y="157.1" width="309.6" height="262.9" fill="#2E86DE"/>
<text x="735.0" y="440" text-anchor="middle" font-size="12">1</text>
<text x="735.0" y="149.1" text-anchor="middle" font-size="11">45.3%</text>
<text x="735.0" y="458" text-anchor="middle" font-size="10" fill="#566573">n=3288</text>
</svg>